<?xml version="1.0" encoding="UTF-8" standalone="no"?>
<!DOCTYPE svg PUBLIC "-//W3C//DTD SVG 1.1//EN" "http://www.w3.org/Graphics/SVG/1.1/DTD/svg11.dtd">
<svg width="100%" height="100%" viewBox="0 0 1083 1322" version="1.1" xmlns="http://www.w3.org/2000/svg" xmlns:xlink="http://www.w3.org/1999/xlink" xml:space="preserve" xmlns:serif="http://www.serif.com/" style="fill-rule:evenodd;clip-rule:evenodd;stroke-linejoin:round;stroke-miterlimit:2;">
    <g transform="matrix(1,0,0,1,-208.94,-89)">
        <g id="Bottle-3" serif:id="Bottle 3">
            <g transform="matrix(5.33065,0,0,5.33065,208.94,89)">
                <path d="M73.4,7.28C74.69,6.24 76.43,6.42 77.98,6.37C94.28,6.44 110.57,6.35 126.86,6.42C132.65,6.48 132.19,17.57 126.23,17.06C126.32,43.03 126.27,69 126.26,94.97C126.34,97.22 125.83,99.7 127.2,101.68C145.23,135.33 163.53,168.84 181.64,202.45C185.18,209.12 190.09,216.08 188.61,224.06C186.81,232.94 177.54,238.25 169.05,238.84C124,238.85 78.95,238.88 33.9,238.82C26.34,238.03 18.98,233.24 15.89,226.17C13.69,221.04 14.6,215.08 17.15,210.26C36.42,174.5 55.87,138.84 75.08,103.05C75.68,101.74 76.69,100.5 76.66,98.99C76.71,71.69 76.61,44.38 76.71,17.08C74.84,16.88 72.59,16.15 72.29,14C72.28,11.77 71.55,8.99 73.4,7.28M112.28,18.03C110.87,18.84 110.59,20.44 110.65,21.93C110.63,44.64 110.67,67.34 110.63,90.05C110.69,91.69 110.45,93.89 112.35,94.62C114.81,96.23 118.04,93.8 117.56,91C117.55,67.69 117.64,44.37 117.52,21.05C117.69,18.37 114.52,16.82 112.28,18.03M103.09,127.93C93.05,132.49 81.22,132.23 71.15,127.94C57.16,153.68 43.15,179.42 29.15,205.16C26.95,209.03 25.21,213.57 26.19,218.09C27.83,226.2 36.04,231.88 44.06,232.11C83.03,232.11 122,232.1 160.97,232.12C168.1,232.08 175.82,228.39 178.69,221.55C180.57,216.51 179.19,210.91 176.72,206.33C161.99,178.36 147.29,150.37 132.54,122.41C130.9,118.94 127.09,115.8 123.08,117.44C115.97,120.02 110.14,125.18 103.09,127.93Z" style="fill:rgb(233,233,233);fill-rule:nonzero;"/>
            </g>
            <g transform="matrix(1.12572,0,0,1.12572,-87.2407,-143.817)">
                <g transform="matrix(25.0097,0,0,21.0939,-2066.32,-2237.19)">
                    <path d="M112.44,146.36C114.83,145.22 118.26,146.06 119.25,148.72C121.48,152.51 116.46,157.52 112.71,155.26C108.98,153.9 108.89,148.01 112.44,146.36Z" style="fill:rgb(183,13,13);fill-rule:nonzero;"/>
                </g>
                <g transform="matrix(25.0097,0,0,21.0939,-2182.34,-2132.14)">
                    <path d="M112.44,146.36C114.83,145.22 118.26,146.06 119.25,148.72C121.48,152.51 116.46,157.52 112.71,155.26C108.98,153.9 108.89,148.01 112.44,146.36Z" style="fill:rgb(183,13,13);fill-rule:nonzero;"/>
                </g>
                <g transform="matrix(8.68028,0,0,6.61533,-43.6101,-103.769)">
                    <path d="M70.2,168.09C69.2,162.34 75.34,156.98 80.91,158.88C86.24,160.3 88.83,167.35 85.33,171.76C92.32,167.07 102.79,170.45 105.81,178.27C109.29,185.78 104.45,195.36 96.51,197.36C89.2,199.61 80.73,194.62 79.1,187.17C77.96,182.76 79.13,177.92 82.11,174.49C77.21,176.96 70.83,173.52 70.2,168.09Z" style="fill:rgb(183,13,13);fill-rule:nonzero;"/>
                </g>
            </g>
            <g transform="matrix(5.33065,0,0,5.33065,208.94,89)">
                <path d="M71.54,0L131.39,0C139.57,2.42 140.9,15.38 134.05,19.97C134.04,43.99 134.06,68.02 134.04,92.05C133.85,94.77 135.6,97.01 136.74,99.32C157.74,137.3 178.73,175.27 199.74,213.24C201.58,216.35 202.51,219.88 203,223.44L203,225.9C201.72,237.21 191.76,246.33 180.73,248L22.15,248C11.04,246.21 1.12,236.85 0,225.43L0,223.23C0.45,220.01 1.21,216.78 2.8,213.92C23.81,175.94 44.82,137.97 65.82,99.98C67.02,97.46 69,95.07 68.9,92.14C68.89,68.08 68.9,44.02 68.89,19.96C61.99,15.4 63.38,2.43 71.54,0M73.4,7.28C71.55,8.99 72.28,11.77 72.29,14C72.59,16.15 74.84,16.88 76.71,17.08C76.61,44.38 76.71,71.69 76.66,98.99C76.69,100.5 75.68,101.74 75.08,103.05C55.87,138.84 36.42,174.5 17.15,210.26C14.6,215.08 13.69,221.04 15.89,226.17C18.98,233.24 26.34,238.03 33.9,238.82C78.95,238.88 124,238.85 169.05,238.84C177.54,238.25 186.81,232.94 188.61,224.06C190.09,216.08 185.18,209.12 181.64,202.45C163.53,168.84 145.23,135.33 127.2,101.68C125.83,99.7 126.34,97.22 126.26,94.97C126.27,69 126.32,43.03 126.23,17.06C132.19,17.57 132.65,6.48 126.86,6.42C110.57,6.35 94.28,6.44 77.98,6.37C76.43,6.42 74.69,6.24 73.4,7.28Z" style="fill-rule:nonzero;"/>
            </g>
            <g transform="matrix(9.77326,0,0,5.78213,-294.3,75.048)">
                <path d="M112.28,18.03C114.52,16.82 117.69,18.37 117.52,21.05C117.64,44.37 117.55,67.69 117.56,91C118.04,93.8 114.81,96.23 112.35,94.62C110.45,93.89 110.69,91.69 110.63,90.05C110.67,67.34 110.63,44.64 110.65,21.93C110.59,20.44 110.87,18.84 112.28,18.03Z" style="fill:rgb(233,233,233);fill-rule:nonzero;"/>
            </g>
            <g transform="matrix(5.33065,0,0,5.33065,208.94,89)">
                <path d="M103.09,127.93C110.14,125.18 115.97,120.02 123.08,117.44C127.09,115.8 130.9,118.94 132.54,122.41C147.29,150.37 161.99,178.36 176.72,206.33C179.19,210.91 180.57,216.51 178.69,221.55C175.82,228.39 168.1,232.08 160.97,232.12C122,232.1 83.03,232.11 44.06,232.11C36.04,231.88 27.83,226.2 26.19,218.09C25.21,213.57 26.95,209.03 29.15,205.16C43.15,179.42 57.16,153.68 71.15,127.94C81.22,132.23 93.05,132.49 103.09,127.93M112.44,146.36C108.89,148.01 108.98,153.9 112.71,155.26C116.46,157.52 121.48,152.51 119.25,148.72C118.26,146.06 114.83,145.22 112.44,146.36M70.2,168.09C70.83,173.52 77.21,176.96 82.11,174.49C79.13,177.92 77.96,182.76 79.1,187.17C80.73,194.62 89.2,199.61 96.51,197.36C104.45,195.36 109.29,185.78 105.81,178.27C102.79,170.45 92.32,167.07 85.33,171.76C88.83,167.35 86.24,160.3 80.91,158.88C75.34,156.98 69.2,162.34 70.2,168.09Z" style="fill:rgb(183,13,13);fill-rule:nonzero;"/>
            </g>
        </g>
    </g>
</svg>
